<?xml version="1.0" standalone="no"?>
<!DOCTYPE svg PUBLIC "-//W3C//DTD SVG 20010904//EN"
 "http://www.w3.org/TR/2001/REC-SVG-20010904/DTD/svg10.dtd">
<svg version="1.0" xmlns="http://www.w3.org/2000/svg"
 width="2100.000000pt" height="2098.000000pt" viewBox="0 0 2100.000000 2098.000000"
 preserveAspectRatio="xMidYMid meet">

<g transform="translate(0.000000,2098.000000) scale(0.100000,-0.100000)"
fill="#000000" stroke="none">
<path d="M9795 20973 c-140 -9 -412 -36 -595 -59 -2352 -292 -4545 -1379
-6201 -3071 -1603 -1639 -2624 -3746 -2913 -6013 -62 -479 -80 -786 -80 -1325
-1 -467 7 -635 45 -1024 216 -2218 1117 -4278 2611 -5970 171 -193 702 -720
903 -895 1591 -1391 3527 -2265 5605 -2530 482 -62 787 -80 1330 -80 545 0
847 18 1335 80 2099 268 4046 1155 5654 2576 194 172 721 703 894 901 1298
1488 2130 3231 2466 5168 104 596 146 1110 145 1774 0 446 -6 601 -40 965
-227 2466 -1333 4790 -3106 6526 -1783 1745 -4107 2792 -6603 2974 -124 9
-1322 12 -1450 3z m1150 -2483 c2301 -134 4389 -1216 5817 -3015 916 -1155
1499 -2559 1667 -4015 40 -349 46 -475 46 -945 0 -481 -9 -646 -56 -1004 -276
-2147 -1397 -4067 -3135 -5372 -1129 -848 -2475 -1383 -3869 -1538 -352 -39
-475 -46 -905 -46 -494 0 -718 15 -1150 76 -2081 294 -3995 1436 -5258 3137
-851 1146 -1366 2455 -1526 3877 -35 309 -41 436 -41 895 1 496 9 631 60 1025
355 2722 2093 5071 4600 6219 848 389 1810 634 2730 696 88 6 180 12 205 13
113 8 662 6 815 -3z"/>
<path d="M10025 18349 c-943 -59 -1879 -289 -2734 -673 -137 -62 -483 -235
-585 -293 -683 -389 -1204 -782 -1727 -1303 -282 -280 -465 -488 -693 -784
-858 -1114 -1404 -2456 -1565 -3846 -41 -356 -46 -456 -46 -925 0 -469 5 -569
46 -925 168 -1448 741 -2816 1664 -3970 337 -421 743 -832 1145 -1161 938
-766 2001 -1294 3158 -1568 312 -74 534 -113 947 -166 292 -38 931 -55 1285
-36 965 53 1861 266 2745 651 168 73 562 273 735 373 1967 1132 3347 3045
3790 5250 101 502 140 887 147 1440 5 400 -2 605 -33 907 -232 2284 -1449
4341 -3344 5654 -1179 818 -2548 1289 -4000 1376 -191 11 -745 11 -935 -1z
m745 -1169 c663 -29 1216 -130 1830 -331 1547 -509 2879 -1599 3692 -3024 832
-1457 1082 -3170 702 -4814 -412 -1783 -1579 -3350 -3177 -4265 -839 -480
-1749 -766 -2727 -856 -339 -32 -870 -29 -1222 5 -1017 100 -1967 417 -2836
947 -724 442 -1384 1047 -1894 1738 -1248 1692 -1620 3882 -1001 5904 246 804
669 1595 1202 2246 202 247 485 543 721 754 1152 1033 2620 1631 4159 1696
264 11 307 11 551 0z"/>
<path d="M10192 17040 c-938 -51 -1809 -280 -2622 -691 -1889 -953 -3203
-2767 -3514 -4849 -104 -693 -97 -1370 19 -2067 292 -1743 1295 -3303 2770
-4305 868 -590 1877 -964 2920 -1082 495 -56 1080 -53 1566 10 2159 276 4036
1610 5012 3560 794 1587 903 3445 300 5119 -477 1322 -1377 2464 -2553 3237
-927 610 -1953 963 -3058 1053 -225 18 -642 26 -840 15z m583 -324 c77 -16
124 -31 132 -42 16 -22 27 -137 16 -171 -12 -33 -9 -33 -228 -14 -163 15 -450
10 -568 -9 -87 -15 -97 -8 -96 69 0 31 6 74 13 96 12 40 12 40 96 62 128 34
210 42 370 38 102 -3 180 -12 265 -29z m-45 -367 c36 -5 90 -19 121 -30 53
-19 57 -24 62 -57 21 -131 20 -276 -2 -310 -7 -11 -31 -10 -137 7 -247 39
-434 37 -642 -6 -56 -11 -77 -12 -86 -3 -25 25 -15 295 13 337 10 17 73 46
126 59 63 15 454 18 545 3z m107 -566 c29 -9 57 -21 62 -27 16 -19 34 -225 27
-311 -9 -127 -7 -124 -74 -108 -255 60 -488 64 -705 11 -69 -17 -90 -19 -100
-9 -18 18 -22 189 -7 304 14 107 26 128 84 146 57 18 69 18 366 14 228 -4 307
-8 347 -20z m-194 -602 c144 -5 252 -12 258 -18 15 -15 33 -258 25 -333 -11
-97 -7 -95 -127 -71 -242 50 -464 50 -649 1 -96 -25 -99 -25 -111 7 -19 51 -4
352 20 392 18 28 188 34 584 22z m-61 -557 c153 -3 217 -7 243 -18 l35 -15 0
-81 c0 -101 -27 -212 -50 -205 -58 18 -236 37 -345 37 -113 0 -267 -18 -319
-38 -33 -13 -67 169 -49 266 12 65 32 73 168 64 61 -3 203 -8 317 -10z m114
-370 c119 -19 127 -25 122 -102 l-3 -47 -80 5 c-118 7 -440 6 -518 -2 -64 -7
-68 -6 -78 16 -16 33 5 103 33 112 112 35 358 44 524 18z m-353 -374 c164 -8
400 -1 515 16 l42 6 0 -141 0 -140 -30 6 c-23 4 -30 2 -30 -10 0 -28 35 -56
79 -64 48 -9 55 -17 68 -78 l8 -40 62 -5 c60 -5 62 -6 104 -58 l43 -53 81 3
80 3 0 34 c-1 37 3 34 -92 60 -39 11 -42 14 -45 49 l-3 37 -72 3 c-40 2 -73 6
-73 9 0 4 8 15 17 25 9 10 18 42 21 73 5 66 -2 64 168 35 215 -37 381 -92 574
-192 160 -82 286 -174 415 -303 203 -202 334 -438 381 -683 14 -75 18 -287 5
-331 l-7 -24 -36 32 c-20 17 -50 53 -66 79 -27 44 -30 57 -41 202 -6 85 -11
184 -11 218 l0 64 -41 -34 c-22 -18 -51 -42 -65 -53 l-24 -19 -43 42 c-23 23
-46 42 -50 42 -4 0 -7 -24 -7 -52 0 -51 1 -55 52 -101 l53 -48 -22 -16 c-31
-21 -29 -40 6 -48 36 -8 55 -29 70 -80 7 -22 45 -110 86 -195 53 -111 78 -174
85 -220 14 -94 12 -255 -5 -405 -9 -72 -20 -173 -26 -225 l-11 -95 69 -59
c103 -90 275 -265 310 -316 l31 -45 -39 -64 c-21 -34 -52 -106 -70 -159 -62
-189 -86 -215 -194 -212 -38 1 -76 2 -82 1 -7 -1 -24 -23 -38 -51 -32 -63 -47
-67 -191 -52 -318 34 -577 122 -874 297 -52 31 -114 73 -138 92 -43 35 -44 36
-24 55 19 19 20 19 88 -2 38 -12 99 -24 137 -27 84 -7 90 10 20 55 -44 27 -94
48 -378 159 -107 42 -155 69 -155 89 0 17 -14 19 142 -12 152 -29 285 -70 408
-124 94 -41 259 -134 333 -187 84 -59 260 -90 357 -63 20 5 60 25 89 44 l55
34 -100 6 c-235 16 -368 44 -417 90 -15 14 -27 29 -27 35 0 5 48 35 108 66
140 74 260 159 266 188 108 570 136 746 136 868 0 96 -13 145 -40 154 -32 10
-179 -52 -279 -119 -164 -111 -329 -271 -540 -525 -47 -58 -114 -135 -149
-171 -170 -181 -382 -186 -704 -18 -140 73 -138 71 -138 181 0 51 -14 322 -30
602 -16 281 -31 542 -31 580 l-2 70 -8 -85 c-5 -47 -18 -218 -29 -380 -12
-162 -32 -401 -45 -530 -39 -382 -32 -347 -82 -396 -52 -50 -145 -101 -217
-120 -66 -18 -205 -18 -281 0 -159 38 -285 122 -414 278 -133 158 -459 481
-559 552 -91 65 -180 105 -229 106 -22 0 -43 -9 -64 -28 -27 -24 -32 -37 -44
-117 -45 -311 -18 -556 80 -720 71 -117 172 -201 397 -327 59 -33 108 -65 108
-69 0 -17 -123 -89 -180 -107 -86 -26 -196 -21 -308 16 -88 29 -93 29 -102 12
-46 -86 49 -138 229 -127 201 13 429 103 556 219 60 55 74 63 143 79 67 16
330 45 337 37 6 -7 21 -118 16 -118 -15 0 -486 -92 -490 -96 -3 -2 6 -16 20
-30 22 -24 29 -26 89 -21 44 3 99 17 169 45 58 23 106 40 108 38 8 -8 -118
-113 -193 -162 -44 -29 -179 -101 -300 -159 -120 -58 -254 -127 -297 -152 -75
-44 -83 -46 -171 -51 -183 -9 -349 47 -492 167 -58 49 -78 74 -108 135 -21 42
-60 106 -87 143 l-50 68 3 83 c4 74 7 84 29 99 52 35 108 103 127 155 32 86
42 191 42 446 l0 237 106 164 c59 91 115 189 125 219 31 89 51 203 47 272 l-2
65 75 125 c124 205 118 198 174 211 99 23 203 59 216 76 13 15 5 15 -96 9
-127 -7 -148 -1 -180 56 l-21 38 -18 -53 c-30 -84 -106 -208 -163 -264 l-53
-53 -16 -102 c-16 -105 -14 -191 8 -276 l11 -44 -54 -55 c-74 -76 -134 -113
-181 -113 -25 0 -41 5 -44 15 -11 28 83 342 163 545 286 725 751 1057 1541
1097 l123 6 -7 -54 c-9 -75 -17 -85 -71 -98 -76 -19 -78 -23 -28 -61 l45 -34
-25 -27 c-20 -20 -25 -32 -20 -52 6 -23 2 -28 -52 -54 -47 -23 -63 -37 -83
-75 -24 -46 -24 -47 -6 -67 11 -12 25 -21 32 -21 18 0 70 72 84 116 13 39 22
41 91 15 67 -26 89 -47 89 -86 0 -27 8 -37 60 -74 33 -23 65 -39 70 -36 27 17
-3 130 -44 164 -11 9 -15 30 -14 75 1 70 -11 101 -44 112 -22 7 -22 7 9 33 17
14 38 45 46 69 l15 42 -36 0 -35 0 6 98 c4 53 7 119 7 146 l0 49 73 -7 c40 -3
152 -11 250 -16z m-3214 -536 c46 -27 85 -106 126 -260 4 -14 175 -117 485
-294 292 -167 392 -230 387 -244 -2 -6 -28 -94 -58 -194 -61 -207 -71 -221
-159 -230 -48 -4 -52 -2 -729 393 l-681 398 0 51 c1 99 60 182 188 264 77 49
101 56 240 67 18 2 41 10 50 18 53 46 107 57 151 31z m6744 -225 c12 -6 36
-24 52 -39 20 -18 46 -30 75 -34 116 -15 137 -23 197 -69 130 -99 183 -185
183 -292 l0 -52 -714 -331 c-474 -221 -724 -332 -746 -332 -35 0 -92 24 -111
46 -9 12 -89 374 -89 406 0 11 134 77 400 197 124 56 290 134 370 172 l146 70
22 62 c59 165 137 236 215 196z m-6904 -660 l288 -161 -47 -47 c-38 -37 -52
-60 -69 -115 -12 -37 -21 -77 -21 -88 0 -13 -5 -18 -14 -15 -26 10 -531 349
-543 365 -17 20 -16 100 0 132 10 20 98 90 114 90 2 0 134 -73 292 -161z
m7275 -153 c17 -22 21 -42 21 -107 l0 -80 -289 -150 c-159 -82 -290 -148 -292
-147 -1 2 -9 33 -18 70 -18 76 -50 134 -95 169 l-31 24 243 105 c133 57 274
118 312 136 62 28 74 30 99 20 16 -7 39 -24 50 -40z m-6758 -135 l130 -74 -42
-39 c-46 -42 -76 -103 -94 -190 l-11 -58 -52 34 c-231 148 -227 145 -227 183
0 67 22 116 77 171 33 33 60 52 71 50 10 -2 76 -36 148 -77z m484 -276 c59
-33 67 -49 69 -130 2 -85 -41 -134 -132 -155 l-49 -10 -154 87 -155 88 5 54
c3 30 17 78 33 110 22 44 37 61 72 78 l44 22 106 -56 c58 -32 131 -71 161 -88z
m5564 115 c43 -38 68 -102 70 -175 l1 -55 -138 -64 c-187 -88 -173 -86 -182
-29 -11 75 -41 143 -81 184 l-37 38 24 10 c13 5 80 34 149 65 69 30 133 55
142 56 10 0 33 -14 52 -30z m-414 -162 c45 -31 78 -99 86 -178 l6 -65 -152
-75 c-88 -44 -160 -74 -173 -71 -82 13 -141 78 -141 155 -1 100 -2 100 167
182 84 40 157 74 163 74 6 0 26 -10 44 -22z m-2563 -838 c199 -33 419 -163
608 -361 270 -283 418 -619 418 -949 0 -169 -30 -297 -106 -444 -42 -82 -74
-111 -135 -122 -36 -7 -130 2 -151 15 -11 7 -40 203 -41 281 0 8 -3 10 -9 5
-5 -6 -16 -61 -25 -123 -9 -63 -18 -118 -21 -122 -3 -5 -32 0 -64 11 l-58 20
-6 52 c-3 29 -9 91 -13 140 -4 48 -10 90 -14 92 -4 2 -12 -52 -17 -121 -6 -69
-13 -127 -15 -130 -3 -2 -48 16 -100 40 l-95 45 -6 120 c-6 124 -19 177 -30
130 -3 -13 -11 -70 -18 -126 -8 -65 -16 -103 -24 -103 -14 0 -124 19 -146 26
-14 4 -18 28 -24 151 -9 178 -19 226 -28 138 -4 -33 -9 -108 -13 -168 -4 -59
-11 -110 -16 -113 -5 -3 -38 -10 -75 -15 -36 -5 -75 -12 -87 -15 -21 -5 -22 0
-34 107 -21 185 -34 179 -51 -24 -5 -60 -11 -110 -13 -111 -12 -10 -182 -66
-186 -61 -3 3 -11 51 -19 107 -20 156 -26 157 -38 8 l-10 -134 -70 -22 c-38
-12 -71 -21 -73 -19 -1 1 -9 42 -18 91 -22 131 -28 132 -34 6 -6 -125 -6 -126
-76 -137 -67 -10 -80 3 -89 82 -4 36 -10 76 -15 87 -7 19 -8 18 -13 -9 -3 -16
-9 -50 -12 -75 -15 -110 -14 -110 -87 -90 -144 40 -186 235 -132 609 37 255
123 505 232 675 227 354 546 542 957 564 17 1 58 -3 92 -8z m-2993 -734 c80
-33 46 -122 -72 -186 l-47 -25 -3 -64 c-3 -60 -1 -66 29 -97 18 -19 40 -34 49
-34 15 0 348 142 652 278 l157 70 70 -107 c59 -90 73 -119 90 -191 25 -107 36
-222 27 -293 l-7 -54 -202 -93 c-111 -52 -284 -133 -384 -181 l-181 -87 -7
-55 c-4 -31 -6 -60 -4 -66 2 -6 99 35 214 90 116 55 248 119 295 141 186 89
275 127 281 120 29 -30 38 -361 14 -507 -65 -399 -288 -697 -563 -754 -163
-34 -339 7 -530 123 -131 80 -144 86 -190 86 -69 0 -103 -21 -159 -96 -265
-357 -438 -828 -469 -1271 -4 -57 -8 -103 -9 -103 -1 0 -16 5 -33 11 -35 12
-35 13 -52 199 -48 521 -22 978 76 1313 25 87 26 90 9 134 -37 96 -99 124
-187 85 -38 -17 -53 -31 -86 -88 -197 -340 -341 -802 -447 -1431 -46 -270 -34
-256 -220 -257 l-135 -1 4 25 c164 859 364 1414 685 1898 127 190 215 298 385
468 236 235 429 379 611 455 l107 44 -6 53 c-4 30 -13 67 -21 83 -26 49 -45
53 -171 39 -62 -7 -117 -9 -123 -6 -15 9 -13 56 2 81 69 117 222 219 373 249
91 19 138 19 178 2z m1351 -106 c22 -5 47 -18 55 -28 10 -12 24 -79 39 -188
48 -366 63 -458 91 -571 31 -127 100 -333 122 -362 7 -10 84 -119 170 -242 87
-123 168 -237 181 -253 l24 -30 179 37 c290 60 354 67 626 67 273 0 363 -9
645 -66 94 -19 177 -34 185 -34 7 0 58 64 113 142 55 78 140 198 190 267 71
100 97 147 127 227 68 186 108 371 149 699 32 258 40 295 69 317 16 11 51 21
93 25 l67 6 0 -48 c0 -34 -10 -67 -35 -119 -42 -86 -80 -228 -101 -385 -33
-247 -29 -673 10 -991 l13 -104 -65 -96 c-247 -362 -531 -654 -809 -834 -74
-48 -77 -52 -88 -123 -4 -24 -14 -52 -23 -63 -36 -42 -248 -73 -354 -51 -34 7
-78 27 -108 47 -40 28 -52 32 -56 20 -9 -23 -87 -56 -156 -66 -83 -12 -206 3
-305 38 -63 22 -79 32 -85 52 -4 14 -11 43 -17 65 -10 36 -21 46 -109 102
-277 176 -560 462 -754 763 -96 148 -91 130 -73 287 22 193 33 518 24 716 -13
281 -52 485 -119 623 -21 44 -30 76 -30 113 l0 51 38 0 c20 0 55 -5 77 -10z
m4355 -41 c183 -100 272 -162 317 -222 52 -72 70 -124 53 -156 -10 -20 -64
-51 -88 -51 -5 0 -40 20 -78 45 -38 24 -75 45 -81 45 -10 0 -13 -27 -13 -105
l0 -104 96 -58 c234 -142 347 -234 604 -492 259 -260 448 -502 607 -781 238
-414 392 -884 458 -1393 15 -121 20 -354 6 -307 -21 68 -26 70 -148 70 -123 0
-154 8 -177 42 -9 13 -24 91 -36 188 -76 601 -191 1040 -359 1375 -58 114 -71
133 -106 152 -85 48 -166 19 -200 -72 -17 -42 -16 -47 9 -152 50 -210 60 -306
60 -608 1 -283 -9 -422 -52 -719 l-17 -119 -55 -18 c-30 -10 -56 -16 -59 -14
-5 5 45 25 63 25 41 0 32 312 -16 545 -52 253 -171 530 -353 820 -61 97 -64
100 -107 107 -23 3 -79 7 -124 7 -80 1 -82 0 -165 -49 -220 -131 -427 -158
-622 -82 -111 43 -268 154 -374 264 -41 42 -42 45 -54 148 -8 75 -10 205 -5
454 3 193 8 352 10 354 3 2 251 -136 553 -306 301 -170 563 -317 580 -326 57
-29 139 -31 264 -6 154 30 196 54 166 94 -27 35 -63 44 -119 30 -67 -18 -152
-18 -209 -1 -37 12 -312 167 -1009 571 -69 40 -149 86 -178 102 l-54 29 7 75
c19 227 85 415 192 548 l19 23 287 -161 c158 -88 291 -160 296 -160 4 0 18 34
30 74 l22 75 -40 37 c-39 34 -41 39 -35 78 10 60 31 96 67 111 52 23 87 17
167 -26z m-4555 9 c9 -11 107 -255 123 -309 11 -36 31 -124 44 -195 21 -117
23 -158 23 -429 -1 -294 -11 -433 -36 -489 -16 -33 -53 -44 -78 -22 -10 9 -25
16 -33 16 -47 0 -64 24 -108 155 l-27 80 28 70 c49 124 64 221 63 410 -1 187
-21 334 -74 548 -35 138 -36 152 -12 167 14 9 79 7 87 -2z m3494 -5 l22 -18
-35 -137 c-102 -406 -113 -730 -30 -945 31 -80 31 -89 9 -188 -18 -84 -52
-135 -90 -135 -12 0 -28 -7 -35 -15 -20 -24 -57 -18 -76 11 -23 35 -30 84 -45
319 -18 290 4 572 62 785 26 94 117 311 137 328 22 17 56 15 81 -5z m-1789
-962 l0 -148 -54 -13 c-49 -12 -139 -10 -152 3 -3 2 -7 51 -11 108 -6 119 3
151 45 173 29 15 150 36 165 29 4 -2 7 -71 7 -152z m155 134 c78 -20 105 -49
105 -113 0 -50 -18 -183 -25 -190 -14 -14 -99 -12 -144 3 l-51 17 0 72 c0 40
3 107 6 149 8 88 7 88 109 62z m-416 -108 c13 -73 14 -157 3 -172 -13 -19
-123 -47 -157 -41 l-33 7 -7 78 c-12 132 3 157 102 180 78 18 80 18 92 -52z
m653 33 c94 -29 101 -39 96 -155 -2 -71 -7 -98 -18 -106 -19 -13 -76 -6 -134
16 -50 19 -61 41 -51 103 19 119 28 162 35 162 4 0 37 -9 72 -20z m-904 -132
c-6 -112 -27 -182 -60 -199 -30 -16 -54 13 -73 86 -18 70 -18 78 -4 129 16 57
49 86 100 86 l42 0 -5 -102z m1153 59 c31 -19 44 -58 43 -126 -1 -72 -31 -157
-59 -167 -22 -9 -50 20 -64 66 -15 51 -26 190 -17 225 6 25 10 27 43 20 19 -3
44 -11 54 -18z m-1372 -48 c24 -39 36 -131 21 -158 -14 -27 -61 -51 -100 -51
l-32 0 4 99 c2 80 7 103 22 120 28 31 63 27 85 -10z m-137 -96 c3 -65 1 -113
-5 -121 -12 -15 -66 -30 -90 -24 -16 4 -17 16 -15 106 l3 101 45 23 c24 12 47
22 51 22 3 0 9 -48 11 -107z m1723 57 c10 -20 15 -58 15 -120 l0 -90 -33 0
c-18 0 -49 11 -70 25 -40 28 -45 52 -28 128 14 59 37 87 71 87 23 0 33 -7 45
-30z m125 -25 c30 -15 30 -16 30 -98 0 -45 -3 -92 -6 -104 -8 -28 -41 -30 -86
-7 l-31 16 7 81 c3 45 6 97 6 114 0 31 2 32 25 23 14 -5 39 -17 55 -25z m-836
-155 c16 -19 6 -161 -14 -184 -9 -12 -31 -16 -76 -16 l-64 0 0 88 c0 135 1
135 77 130 38 -2 69 -10 77 -18z m-180 -6 c3 -9 6 -58 6 -110 l0 -94 -64 0
c-39 0 -67 5 -74 13 -13 16 -21 58 -24 127 -2 49 0 56 22 67 37 19 126 17 134
-3z m385 -5 c27 -10 31 -15 30 -47 -1 -70 -16 -144 -30 -153 -8 -5 -44 -9 -81
-9 l-68 0 0 83 c0 97 6 124 29 130 32 9 88 7 120 -4z m-597 -21 c4 -7 8 -55 8
-105 l0 -93 -69 0 c-47 0 -74 5 -84 14 -19 19 -32 163 -17 181 6 8 21 16 33
19 37 8 120 -3 129 -16z m768 -34 c6 -14 10 -47 10 -74 0 -90 -28 -130 -91
-130 l-40 0 7 48 c8 55 39 149 55 168 19 23 49 16 59 -12z m-1016 -6 c19 -31
43 -103 51 -159 6 -42 5 -47 -15 -52 -69 -18 -116 47 -107 149 2 34 8 67 11
73 12 19 45 12 60 -11z m1174 -46 c10 -7 9 -21 -7 -71 -28 -90 -65 -123 -99
-89 -27 27 -7 153 26 161 29 8 66 7 80 -1z m145 -35 c-2 -21 -11 -58 -22 -83
-19 -43 -21 -44 -65 -44 l-45 0 26 78 c14 42 31 80 37 85 6 4 25 6 41 5 28 -3
30 -5 28 -41z m-1616 25 c13 -8 24 -34 47 -110 l15 -52 -44 0 c-50 0 -60 13
-85 103 -11 41 -11 50 1 58 17 11 50 11 66 1z m150 2 c25 -7 45 -56 45 -110 0
-60 -41 -84 -76 -45 -26 29 -59 143 -43 153 14 9 44 10 74 2z m503 -1443 c175
-7 524 1 558 14 11 4 13 -6 7 -47 -77 -612 -181 -976 -352 -1242 -67 -105 -52
-114 42 -26 146 135 149 136 47 10 l-101 -125 197 -11 c108 -7 257 -15 330
-19 73 -4 132 -9 130 -10 -2 -2 -147 -11 -323 -21 -176 -9 -322 -19 -324 -21
-3 -2 33 -43 80 -91 152 -157 156 -167 20 -53 -74 61 -135 110 -136 109 -2 -2
-10 -118 -20 -258 -9 -140 -20 -263 -24 -273 -3 -10 -15 102 -25 250 -10 147
-19 269 -21 271 -2 2 -39 -29 -82 -69 -106 -100 -149 -137 -136 -119 6 8 50
62 97 120 47 58 86 108 86 112 0 5 -19 8 -42 8 -24 0 -155 7 -293 15 -137 8
-265 15 -284 15 -19 0 -32 2 -30 4 2 2 148 12 324 21 176 10 322 19 324 22 3
2 -40 50 -95 106 -149 153 -152 162 -13 44 l127 -106 -56 92 c-110 182 -201
436 -261 735 -38 184 -88 531 -82 563 1 3 31 2 69 -3 37 -5 155 -12 262 -17z"/>
<path d="M10512 13631 l-44 -6 51 -68 c28 -37 51 -76 51 -86 0 -32 -39 -69
-107 -103 -56 -27 -68 -38 -84 -76 -21 -49 -18 -62 15 -62 27 0 39 13 53 55 6
17 16 29 22 27 27 -6 93 21 127 50 l36 32 35 -19 c52 -28 68 -58 53 -95 -11
-27 -10 -33 21 -76 48 -66 77 -85 135 -87 57 -2 68 15 35 60 -12 15 -30 59
-40 98 -20 71 -42 100 -116 150 -74 50 -103 89 -115 153 l-13 62 -36 -2 c-20
0 -56 -4 -79 -7z"/>
<path d="M10363 10818 c-195 -181 -302 -584 -207 -784 38 -79 89 -68 205 43
l76 73 41 -49 c43 -50 120 -108 159 -117 63 -16 104 32 117 138 15 118 -35
351 -105 490 -51 102 -123 213 -152 233 -40 28 -83 19 -134 -27z"/>
<path d="M9899 10619 c-34 -36 -54 -97 -45 -134 21 -81 129 -10 143 94 10 74
-45 97 -98 40z"/>
<path d="M10962 10578 c-18 -18 -14 -74 8 -118 54 -106 153 -88 121 22 -23 77
-95 130 -129 96z"/>
<path d="M8084 9091 c-53 -19 -299 -143 -330 -166 -16 -11 -16 -15 7 -43 33
-42 121 -109 207 -157 66 -37 72 -43 72 -73 0 -49 -37 -82 -93 -82 -94 0 -232
61 -371 163 l-78 59 -30 -29 c-131 -125 -63 -287 154 -363 78 -27 253 -39 325
-21 108 28 198 92 249 178 44 75 58 153 58 323 1 139 -1 159 -19 190 -18 30
-27 35 -60 37 -22 2 -63 -6 -91 -16z"/>
<path d="M6890 8992 c-47 -23 -52 -55 -11 -80 17 -10 76 -29 132 -42 135 -30
220 -25 307 19 l63 32 -16 27 c-42 70 -38 68 -102 41 -78 -32 -202 -33 -281
-1 -63 26 -50 26 -92 4z"/>
<path d="M9963 8218 c-35 -38 -63 -75 -63 -82 0 -24 57 -92 90 -108 44 -21 69
-12 87 31 29 68 3 232 -36 230 -9 0 -44 -32 -78 -71z"/>
<path d="M10870 8263 c-20 -45 -25 -162 -7 -204 18 -43 43 -52 87 -31 33 16
90 84 90 108 0 19 -123 152 -141 153 -9 1 -22 -11 -29 -26z"/>
<path d="M12479 8932 c-43 -39 -59 -113 -59 -288 0 -208 27 -274 140 -346 59
-38 213 -86 297 -94 124 -12 245 35 322 123 72 81 80 172 23 241 -27 34 -34
37 -73 34 -59 -5 -120 -31 -230 -98 -124 -75 -166 -94 -214 -94 -76 0 -146 69
-125 124 10 28 26 33 118 39 66 4 99 20 136 71 27 36 28 125 2 183 -15 35 -28
46 -85 72 -153 70 -203 77 -252 33z"/>
</g>
</svg>
